<svg width="394" height="501" viewBox="0 0 394 501" fill="none" xmlns="http://www.w3.org/2000/svg">
<rect x="0.341064" y="0.125" width="393.659" height="500" rx="30" fill="#EF3E36"/>
<path d="M394 98C266.124 380.937 96.7184 483.045 28 498.732C28 498.732 335.739 501.584 358.147 498.732C380.555 495.88 394 470.923 394 461.654L394 98Z" fill="#DB3A32"/>
<rect x="27.5222" y="76.125" width="337.422" height="390" rx="6" fill="white"/>
<rect x="53.1389" y="108.125" width="136" height="136" rx="6" fill="#6DCACA"/>
<path d="M210.292 124.125H328.859M210.292 153.125H303.552M210.292 183.625H319.486" stroke="#2E282A" stroke-width="3"/>
<path d="M126.874 33.125C126.874 27.6022 131.351 23.125 136.874 23.125H257.467C262.99 23.125 267.467 27.6022 267.467 33.125V43.125C267.467 48.6478 262.99 53.125 257.467 53.125H136.874C131.351 53.125 126.874 48.6478 126.874 43.125V33.125Z" fill="white"/>
</svg>
