<svg width="1100" height="673" viewBox="0 0 1100 673" fill="none" xmlns="http://www.w3.org/2000/svg">
<path d="M817.409 44.6254C772.419 34.1245 756.017 35.125 718.526 44.6254C702.436 57.7921 670.912 96.0255 673.536 143.625C680.097 125.625 700.021 90.4214 718.526 77.1253C741.489 60.6253 786.479 65.6253 868.022 69.1253L845.059 53.6253L817.409 44.6254Z" fill="#A6A6CA"/>
<path d="M619.174 310.625C634.92 355.025 616.674 444.458 605.583 483.625L663.695 403.125C669.318 390.958 675.879 355.425 657.134 310.625C638.388 265.825 660.258 180.625 673.536 143.625C676.035 125.625 688.533 80.6251 718.526 44.625C681.034 49.825 652.291 112.792 642.606 143.625C628.234 180.792 603.427 266.225 619.174 310.625Z" fill="#C3C3E9"/>
<path d="M492.172 622.625C399.381 670.625 277.534 672.125 200.208 672.125C151.938 672.292 57.4596 642.725 65.7077 523.125C80.0794 561.458 123.351 622.625 200.208 622.625C337.051 622.625 427.499 622.625 547.003 534.625C600.897 494.939 610.269 482.125 666.975 391.625C665.314 440.215 647.672 481.393 623.042 515.125C580.964 572.751 530.834 602.625 492.172 622.625Z" fill="#A6A6CA"/>
<path d="M16.9691 523.125C-2.24523 458.625 -21.1784 295.225 56.8036 157.625C108.159 67.0089 186.829 56.3296 263.006 71.9944C280.971 82.5317 316.9 105.508 316.9 113.116C200.208 84.1251 155.218 103.125 104.136 157.625C81.6416 181.625 18.375 346.625 65.7078 523.125C72.2687 547.292 95.2322 672.125 200.208 672.125C85.8594 672.125 33.8402 575.458 16.9691 523.125Z" fill="#C3C3E9"/>
<path d="M440.621 139.124C493.204 160.926 526.622 118.172 569.328 74.6245C582.975 65.2874 614.956 46.6133 633.701 46.6133C598.553 101.784 510.73 205.824 440.621 180.624C398.004 165.306 352.652 137.972 316.9 113.115C293.836 97.0798 274.767 82.0756 263.006 71.9938C331.421 86.0626 397.825 121.381 440.621 139.124Z" fill="#A6A6CA"/>
<path d="M686.774 2.93085C784.207 -13.2246 942.068 41.125 939.724 75.1254H903.89H868.055C866.616 65.125 845.065 56.695 825.845 48.625C798.09 36.972 760.858 30.1654 725.653 29.6882C695.296 29.2766 662.405 37.0599 633.842 46.8421C606.341 56.2601 582.852 67.5311 569.498 75.1254C600.236 43.4628 635.788 11.3849 686.774 2.93085Z" fill="#C3C3E9"/>
<rect x="706.341" y="139.125" width="393.659" height="500" rx="30" fill="#EF3E36"/>
<path d="M1100 237C972.124 519.937 802.718 622.045 734 637.732C734 637.732 1041.74 640.584 1064.15 637.732C1086.56 634.88 1100 609.923 1100 600.654L1100 237Z" fill="#DB3A32"/>
<rect x="733.522" y="215.125" width="337.422" height="390" rx="6" fill="white"/>
<rect x="759.139" y="247.125" width="136" height="136" rx="6" fill="#6DCACA"/>
<path d="M916.292 263.125H1034.86M916.292 292.125H1009.55M916.292 322.625H1025.49" stroke="#2E282A" stroke-width="3"/>
<path d="M832.874 172.125C832.874 166.602 837.351 162.125 842.874 162.125H963.467C968.99 162.125 973.467 166.602 973.467 172.125V182.125C973.467 187.648 968.99 192.125 963.467 192.125H842.874C837.351 192.125 832.874 187.648 832.874 182.125V172.125Z" fill="white"/>
<rect x="865.679" y="72.125" width="74.0454" height="105" fill="#C4C4C4"/>
<path d="M895 177L940 132L940 117L880 177L895 177Z" fill="#D9D9D9"/>
<path d="M866 165L940 91L940 76L866 150L866 165Z" fill="#D9D9D9"/>
</svg>
