<svg width="89" height="103" viewBox="0 0 89 103" fill="none" xmlns="http://www.w3.org/2000/svg">
<rect x="0.268799" y="0.135742" width="76.4597" height="91.0234" rx="6" fill="#EF3E36"/>
<rect x="5.5481" y="13.9707" width="65.5369" height="70.9983" rx="5" fill="white"/>
<rect x="12.4661" y="20.8887" width="24.7584" height="24.7584" rx="5" fill="#6DCACA"/>
<path d="M41.0474 24.3477H64.0763M41.0474 29.627H59.161M41.0474 35.1794H62.2558" stroke="#2E282A" stroke-width="3" stroke-linecap="round"/>
<path d="M24.8452 7.05395C24.8452 5.54582 26.0678 4.32324 27.5759 4.32324H49.4215C50.9297 4.32324 52.1522 5.54582 52.1522 7.05395C52.1522 8.56207 50.9297 9.78465 49.4215 9.78465H27.5759C26.0678 9.78465 24.8452 8.56207 24.8452 7.05395Z" fill="white"/>
<circle cx="63.4756" cy="76.5959" r="25.4866" fill="white"/>
<ellipse cx="63.4754" cy="76.5953" rx="20.3892" ry="20.3892" fill="#C3C3E9"/>
<path d="M65.8462 66.8462C65.8462 65.825 65.0212 65 64 65C62.9788 65 62.1538 65.825 62.1538 66.8462V75.1538H53.8462C52.825 75.1538 52 75.9788 52 77C52 78.0212 52.825 78.8462 53.8462 78.8462H62.1538V87.1538C62.1538 88.175 62.9788 89 64 89C65.0212 89 65.8462 88.175 65.8462 87.1538V78.8462H74.1538C75.175 78.8462 76 78.0212 76 77C76 75.9788 75.175 75.1538 74.1538 75.1538H65.8462V66.8462Z" fill="#2E282A"/>
</svg>
