<svg width="89" height="103" viewBox="0 0 89 103" fill="none" xmlns="http://www.w3.org/2000/svg">
<rect x="0.268799" y="0.978516" width="76.4597" height="91.0234" rx="6" fill="#6DCACA"/>
<rect x="5.54785" y="14.8135" width="65.5369" height="70.9983" rx="5" fill="white"/>
<rect x="12.4658" y="21.7314" width="24.7584" height="24.7584" rx="5" fill="#C3C3E9"/>
<path d="M41.0471 25.1904H64.076M41.0471 30.4698H59.1608M41.0471 36.0222H62.2556" stroke="#2E282A" stroke-width="3" stroke-linecap="round"/>
<path d="M24.8452 7.89672C24.8452 6.38859 26.0678 5.16602 27.5759 5.16602H49.4215C50.9297 5.16602 52.1522 6.38859 52.1522 7.89672C52.1522 9.40484 50.9297 10.6274 49.4215 10.6274H27.5759C26.0678 10.6274 24.8452 9.40484 24.8452 7.89672Z" fill="white"/>
<circle cx="63.4753" cy="77.4387" r="25.4866" fill="white"/>
<ellipse cx="63.0862" cy="77.0498" rx="20" ry="20" fill="#EF3E36"/>
<path d="M74.9335 72.8094C75.0926 73.2172 74.9583 73.6719 74.6152 73.9625L72.4617 75.8094C72.5164 76.1984 72.5463 76.5969 72.5463 77C72.5463 77.4031 72.5164 77.8016 72.4617 78.1906L74.6152 80.0375C74.9583 80.3281 75.0926 80.7828 74.9335 81.1906C74.7146 81.7484 74.4511 82.2828 74.1477 82.7984L73.9139 83.1781C73.5857 83.6937 73.2177 84.1812 72.8148 84.6406C72.5214 84.9781 72.034 85.0906 71.5964 84.9594L68.8262 84.1297C68.1598 84.6125 67.4238 85.0156 66.638 85.3203L66.0163 87.9969C65.9169 88.4234 65.5687 88.7609 65.1112 88.8312C64.4249 88.9391 63.7186 88.9953 62.9975 88.9953C62.2764 88.9953 61.5702 88.9391 60.8839 88.8312C60.4263 88.7609 60.0782 88.4234 59.9787 87.9969L59.357 85.3203C58.5713 85.0156 57.8352 84.6125 57.1688 84.1297L54.4036 84.9641C53.966 85.0953 53.4786 84.9781 53.1852 84.6453C52.7823 84.1859 52.4143 83.6984 52.0861 83.1828L51.8523 82.8031C51.5489 82.2875 51.2854 81.7531 51.0665 81.1953C50.9074 80.7875 51.0417 80.3328 51.3848 80.0422L53.5383 78.1953C53.4836 77.8016 53.4537 77.4031 53.4537 77C53.4537 76.5969 53.4836 76.1984 53.5383 75.8094L51.3848 73.9625C51.0417 73.6719 50.9074 73.2172 51.0665 72.8094C51.2854 72.2516 51.5489 71.7172 51.8523 71.2016L52.0861 70.8219C52.4143 70.3062 52.7823 69.8187 53.1852 69.3594C53.4786 69.0219 53.966 68.9094 54.4036 69.0406L57.1738 69.8703C57.8402 69.3875 58.5762 68.9844 59.362 68.6797L59.9837 66.0031C60.0832 65.5766 60.4313 65.2391 60.8888 65.1687C61.5751 65.0562 62.2814 65 63.0025 65C63.7236 65 64.4298 65.0563 65.1161 65.1641C65.5737 65.2344 65.9218 65.5719 66.0213 65.9984L66.643 68.675C67.4287 68.9797 68.1648 69.3828 68.8312 69.8656L71.6013 69.0359C72.039 68.9047 72.5264 69.0219 72.8198 69.3547C73.2227 69.8141 73.5907 70.3016 73.9189 70.8172L74.1527 71.1969C74.456 71.7125 74.7196 72.2469 74.9384 72.8047L74.9335 72.8094ZM63.0025 80.75C64.0577 80.75 65.0697 80.3549 65.8158 79.6517C66.562 78.9484 66.9811 77.9946 66.9811 77C66.9811 76.0054 66.562 75.0516 65.8158 74.3483C65.0697 73.6451 64.0577 73.25 63.0025 73.25C61.9473 73.25 60.9353 73.6451 60.1892 74.3483C59.443 75.0516 59.0238 76.0054 59.0238 77C59.0238 77.9946 59.443 78.9484 60.1892 79.6517C60.9353 80.3549 61.9473 80.75 63.0025 80.75Z" fill="#2E282A"/>
</svg>
