<svg width="89" height="102" viewBox="0 0 89 102" fill="none" xmlns="http://www.w3.org/2000/svg">
<rect width="76.4597" height="91.0234" rx="6" fill="#C3C3E9"/>
<rect x="5.27905" y="13.835" width="65.5369" height="70.9983" rx="5" fill="white"/>
<rect x="12.197" y="20.7529" width="24.7584" height="24.7584" rx="5" fill="#EF3E36"/>
<path d="M40.7783 24.2119H63.8072M40.7783 29.4913H58.892M40.7783 35.0437H61.9868" stroke="#2E282A" stroke-width="3" stroke-linecap="round"/>
<path d="M24.5764 6.9182C24.5764 5.41008 25.799 4.1875 27.3071 4.1875H49.1527C50.6609 4.1875 51.8834 5.41008 51.8834 6.9182C51.8834 8.42633 50.6609 9.64891 49.1527 9.64891H27.3071C25.799 9.64891 24.5764 8.42633 24.5764 6.9182Z" fill="white"/>
<circle cx="63.2065" cy="76.4602" r="25.4866" fill="white"/>
<ellipse cx="63.2066" cy="76.4605" rx="20.3892" ry="20.3892" fill="#6DCACA"/>
<path d="M70.2572 74.8414L70.7875 74.3112L69.1964 72.7205L66.2818 69.8066L64.6906 68.216L64.1603 68.7462L63.0995 69.8066L53.75 79.1536C53.2619 79.6416 52.9052 80.2469 52.708 80.9085L51.0465 86.5579C50.9292 86.9521 51.0371 87.3791 51.3328 87.67C51.6285 87.9609 52.0509 88.0688 52.4452 87.9562L58.0915 86.2952C58.7533 86.0981 59.3588 85.7415 59.8469 85.2535L69.1964 75.9066L70.2572 74.8414ZM58.5092 82.7431L58.0821 83.8083C57.8944 83.9537 57.6832 84.0617 57.4579 84.1321L53.7875 85.2113L54.8671 81.5466C54.9328 81.3167 55.0454 81.1056 55.1909 80.9226L56.2564 80.4956V81.9971C56.2564 82.41 56.5943 82.7478 57.0073 82.7478H58.5092V82.7431ZM68.0231 64.8798L67.3472 65.5602L66.2864 66.6206L65.7514 67.1508L67.3425 68.7415L70.2572 71.6554L71.8483 73.2461L72.3787 72.7158L73.4394 71.6554L74.12 70.975C75.2933 69.802 75.2933 67.9016 74.12 66.7285L72.2754 64.8798C71.102 63.7067 69.2011 63.7067 68.0277 64.8798H68.0231ZM65.7983 72.7628L59.0396 79.5196C58.7486 79.8105 58.2699 79.8105 57.9789 79.5196C57.6879 79.2287 57.6879 78.7501 57.9789 78.4591L64.7376 71.7023C65.0286 71.4114 65.5073 71.4114 65.7983 71.7023C66.0893 71.9932 66.0893 72.4718 65.7983 72.7628Z" fill="#2E282A"/>
</svg>
