<svg width="71" height="71" viewBox="0 0 71 71" fill="none" xmlns="http://www.w3.org/2000/svg">
<g id="Logo">
<path id="Vector" d="M0 6.99353V13.9873H1.2394H2.47881V8.23294V2.47857H8.48105H14.4833L14.5541 1.30999C14.5718 0.672583 14.5718 0.105998 14.5364 0.0705872C14.501 0.0351753 11.2077 -0.000236511 7.22395 -0.000236511H0V6.99353Z" fill="#2E282A"/>
<path id="Vector_2" d="M55.7732 1.23917V2.47857H61.7931H67.8131V8.23294V13.9873H69.141H70.469V6.99353V-0.000236511H63.1211H55.7732V1.23917Z" fill="#2E282A"/>
<path id="Vector_3" d="M16.1123 2.30136V3.71782H28.223H40.3338L40.4577 5.34675C40.5108 6.24975 40.5462 8.17967 40.5108 9.64925L40.4577 12.3051L31.658 12.3582L22.8405 12.3936V13.8101V15.2266H35.4116H47.9827V13.8101V12.3936H45.6809H43.3792V8.05573V3.71782H48.7794H54.1797V2.30136V0.884905H35.146H16.1123V2.30136Z" fill="#2E282A"/>
<path id="Vector_4" d="M57.5082 4.21403L56.3042 4.26715V9.02999V13.8105H61.2618H66.2194V9.02999V4.24944L65.3872 4.23174C62.6783 4.17862 58.5351 4.16091 57.5082 4.21403ZM63.9177 9.02999V11.6859H61.2618H58.6059V9.02999V6.37413H61.2618H63.9177V9.02999Z" fill="#2E282A"/>
<path id="Vector_5" d="M60.0225 8.9419V10.0928H61.1733H62.3242V8.9419V7.79103H61.1733H60.0225V8.9419Z" fill="#2E282A"/>
<path id="Vector_6" d="M4.07227 9.02999V13.8105H8.94135H13.8104V9.02999V4.24944H8.94135H4.07227V9.02999ZM11.5087 9.02999V11.6859H9.02988H6.55107V9.02999V6.37413H9.02988H11.5087V9.02999Z" fill="#2E282A"/>
<path id="Vector_7" d="M7.96753 8.9419V10.0928H9.1184H10.287L10.2339 8.97731L10.1807 7.87955L9.08299 7.82644L7.96753 7.77332V8.9419Z" fill="#2E282A"/>
<path id="Vector_8" d="M15.5103 6.69319C15.4572 6.74631 15.4041 7.41913 15.4041 8.18048V9.56152H17.9537H20.5033L20.6272 8.21589C20.7335 7.24207 20.6981 6.83484 20.5564 6.7286C20.3085 6.58696 15.6519 6.53384 15.5103 6.69319Z" fill="#2E282A"/>
<path id="Vector_9" d="M23.159 6.67531C22.8934 6.74614 22.8403 6.95861 22.8403 8.1626V9.56135H24.0797C25.4785 9.56135 25.3368 9.79153 25.39 7.61372L25.4077 6.6399L24.4338 6.6222C23.9027 6.6222 23.3184 6.6399 23.159 6.67531Z" fill="#2E282A"/>
<path id="Vector_10" d="M28.3823 6.67549C27.9928 6.74631 27.9751 6.83484 27.9751 8.16277V9.56152H30.8965H33.8357L33.7826 8.09195L33.7295 6.64007L31.2507 6.62237C29.8873 6.60466 28.5948 6.62237 28.3823 6.67549Z" fill="#2E282A"/>
<path id="Vector_11" d="M46.3536 6.67549C46.088 6.74631 46.0349 6.97648 46.0349 8.16277V9.56152H50.1072H54.1796V8.05653V6.55155L50.4259 6.56925C48.3544 6.58696 46.513 6.62237 46.3536 6.67549Z" fill="#2E282A"/>
<path id="Vector_12" d="M15.4041 14.076V15.7403L13.244 15.7934L11.0661 15.8466L11.013 16.7141C10.9068 18.467 10.836 18.4139 13.5095 18.4139L15.8467 18.3962L17.4933 16.8204C19.0514 15.2977 19.1577 15.2269 19.919 15.2269H20.7158V13.8104V12.3939H18.0599H15.4041V14.076Z" fill="#2E282A"/>
<path id="Vector_13" d="M51.5591 13.9876L51.6299 15.5988L53.0287 16.9976L54.4451 18.4141H56.8708H59.3142V17.0861V15.7582H56.8354H54.3566V14.0762V12.3941H52.9224H51.4883L51.5591 13.9876Z" fill="#2E282A"/>
<path id="Vector_14" d="M0 35.6777V55.5967H4.33791H8.69352L8.6404 54.5697L8.58729 53.5605L5.5419 53.5074L2.4788 53.472V35.9433V18.4146H5.40025H8.3217V17.0867V15.7587H4.16085H0V35.6777Z" fill="#2E282A"/>
<path id="Vector_15" d="M62.0942 15.8821C62.0233 15.9352 61.9702 16.5372 61.9702 17.2101V18.414H64.8917H67.8131V22.1323V25.8682L69.1056 25.815L70.3804 25.7619L70.4336 20.7512L70.469 15.7582H66.3435C64.0595 15.7582 62.1473 15.8113 62.0942 15.8821Z" fill="#2E282A"/>
<path id="Vector_16" d="M22.8403 35.7652V52.7627H25.0536H27.2668V35.7652V18.7677H25.0536H22.8403V35.7652Z" fill="#2E282A"/>
<path id="Vector_17" d="M31.6934 20.8038C31.6934 21.9193 31.7465 22.84 31.835 22.84C31.9058 22.8577 34.5617 22.8931 37.7487 22.9462C44.0166 23.0347 44.3884 23.0879 45.6986 24.0617C47.0442 25.0532 47.9826 26.629 48.2482 28.3465C48.4076 29.3734 48.0712 31.1794 47.6817 31.4627C47.4869 31.622 46.7078 31.6929 45.4153 31.6929H43.4323L43.5031 30.4003C43.5916 28.9131 43.3969 28.4173 42.4939 27.9038C41.9096 27.5497 41.5378 27.532 36.7926 27.4789L31.6934 27.4258V31.0554V34.6851L36.7041 34.7382C41.3253 34.7914 41.7679 34.8268 42.724 35.1809C45.0081 36.0485 46.9911 37.9607 47.8056 40.1208C48.6555 42.4225 48.1597 45.1138 46.6016 46.7073C44.9727 48.3717 44.229 48.5133 37.1644 48.5133H31.6934V50.638V52.7627H37.9081C44.654 52.7627 45.2737 52.6919 47.2744 51.7358C49.1689 50.8151 51.2582 48.23 52.055 45.8043C53.0819 42.7058 52.4268 38.9168 50.4083 36.2963L49.8063 35.5173L50.4083 34.7205C52.0019 32.6313 52.7632 29.9577 52.4445 27.6205C52.3383 26.8769 52.0904 25.8323 51.8779 25.2834C51.0457 23.0347 48.8502 20.6622 46.7432 19.7061C44.9196 18.8739 43.9103 18.7677 37.5894 18.7677H31.6934V20.8038Z" fill="#2E282A"/>
<path id="Vector_18" d="M5.48877 23.0175V24.7881H6.90523H8.32169V23.0175V21.2469H6.90523H5.48877V23.0175Z" fill="#2E282A"/>
<path id="Vector_19" d="M11.013 29.0733L11.0661 36.917H12.394H13.7219L13.775 33.5175L13.8105 30.118L16.3424 30.0649L18.8566 30.0117L18.9097 25.6207L18.9451 21.2474H17.6172H16.2893V24.2574V27.2674H15.0499H13.8105V24.2574V21.2474H12.394H10.9775L11.013 29.0733Z" fill="#2E282A"/>
<path id="Vector_20" d="M56.4989 30.0639C56.4812 34.9153 56.5166 39.0053 56.5874 39.1824C56.676 39.4303 56.9238 39.4834 58.0039 39.4834H59.3141V30.3649V21.2465H57.9154H56.5166L56.4989 30.0639Z" fill="#2E282A"/>
<path id="Vector_21" d="M62.1472 23.0175V24.7881H63.5637H64.9801V23.0175V21.2469H63.5637H62.1472V23.0175Z" fill="#2E282A"/>
<path id="Vector_22" d="M5.45351 29.3388C5.48892 30.4011 5.54204 31.2687 5.54204 31.2687C5.55974 31.2864 6.19715 31.251 6.9585 31.2156L8.32184 31.1094V29.2857V27.4443H6.86997H5.40039L5.45351 29.3388Z" fill="#2E282A"/>
<path id="Vector_23" d="M62.1472 33.4634V39.4834H63.5637H64.9801V33.4634V27.4435H63.5637H62.1472V33.4634Z" fill="#2E282A"/>
<path id="Vector_24" d="M67.8131 40.7239V53.472H64.8917H61.9702V54.5343V55.5967H66.2196H70.469V41.7862V27.9757H69.141H67.8131V40.7239Z" fill="#2E282A"/>
<path id="Vector_25" d="M5.48877 35.3228V37.0049H6.90523H8.32169V35.3228V33.6408H6.90523H5.48877V35.3228Z" fill="#2E282A"/>
<path id="Vector_26" d="M31.6934 41.3428V43.9102H37.3415C42.9896 43.9102 43.0073 43.9102 43.2729 43.5206C43.8395 42.7062 43.5031 41.0595 42.5647 40.0149C41.5378 38.8817 40.9535 38.7755 35.9959 38.7755H31.6934V41.3428Z" fill="#2E282A"/>
<path id="Vector_27" d="M5.48877 42.3165V45.1494H6.90523H8.32169V42.3165V39.4836H6.90523H5.48877V42.3165Z" fill="#2E282A"/>
<path id="Vector_28" d="M10.9775 42.405V45.1494H12.394H13.8105V43.733V42.3165H16.3778H18.9451V40.9886V39.6606H14.9613H10.9775V42.405Z" fill="#2E282A"/>
<path id="Vector_29" d="M56.6584 43.6444V45.1494H60.8193H64.9801V43.6444V42.1394H60.8193H56.6584V43.6444Z" fill="#2E282A"/>
<path id="Vector_30" d="M16.2893 46.6542V47.9645L13.6866 48.0176L11.0662 48.0707L11.013 50.1954C10.9776 51.364 11.013 53.0637 11.0662 53.949L11.1901 55.5956H13.3856H15.5811V57.6318V59.668H16.9976H18.414V57.8266V55.9852L17.033 54.5333L15.6342 53.0814L14.7312 53.1345L13.8105 53.2054V52.0014V50.8151H16.3779H18.9452V48.0707V45.3263H17.6173H16.2893V46.6542Z" fill="#2E282A"/>
<path id="Vector_31" d="M5.48877 49.399V50.8154H6.90523H8.32169V49.399V47.9825H6.90523H5.48877V49.399Z" fill="#2E282A"/>
<path id="Vector_32" d="M56.623 50.4968L56.5699 53.0287L55.5784 53.0818L54.5869 53.135L53.0819 54.6754L51.5769 56.2158L51.6123 57.5437C51.6831 59.9163 51.5238 59.6684 53.0288 59.6684H54.3567V57.6322V55.5961H56.8355H59.3143V51.7893V47.9826H57.9864H56.6762L56.623 50.4968Z" fill="#2E282A"/>
<path id="Vector_33" d="M62.1472 49.399V50.8154H63.5637H64.9801V49.399V47.9825H63.5637H62.1472V49.399Z" fill="#2E282A"/>
<path id="Vector_34" d="M22.8403 58.163V59.668H35.4114H47.9825V58.163V56.658H35.4114H22.8403V58.163Z" fill="#2E282A"/>
<path id="Vector_35" d="M0 64.2718V71H7.25936H14.5187V69.8491V68.6983H8.49876H2.4788V63.1209V57.5436H1.2394H0V64.2718Z" fill="#2E282A"/>
<path id="Vector_36" d="M4.10768 62.1826L4.16079 66.8392L8.99446 66.8923L13.8104 66.9277V62.2357V57.5437H8.94135H4.07227L4.10768 62.1826ZM11.1192 59.7746C11.491 59.8808 11.5087 59.9517 11.5087 62.3419V64.803H9.02988H6.55107V62.3242V59.8631L7.84359 59.7923C10.4109 59.6684 10.7119 59.6684 11.1192 59.7746Z" fill="#2E282A"/>
<path id="Vector_37" d="M7.96753 62.3242V63.4043L9.08299 63.3512L10.1807 63.2981L10.2339 62.2711L10.287 61.2619H9.1184H7.96753V62.3242Z" fill="#2E282A"/>
<path id="Vector_38" d="M56.3042 62.2357V66.9277H61.2618H66.2194V62.2357V57.5437H61.2618H56.3042V62.2357ZM63.4396 59.81L63.9177 59.8454V62.3242V64.803H61.2618H58.6059V62.2711V59.7569H60.7838C61.97 59.7746 63.1563 59.7923 63.4396 59.81Z" fill="#2E282A"/>
<path id="Vector_39" d="M60.0225 62.3244V63.3867H61.1733H62.3242V62.3244V61.262H61.1733H60.0225V62.3244Z" fill="#2E282A"/>
<path id="Vector_40" d="M67.8131 63.1209V68.6983H61.7931H55.7732V69.8491V71H63.1211H70.469V64.2718V57.5436H69.141H67.8131V63.1209Z" fill="#2E282A"/>
<path id="Vector_41" d="M15.5811 63.9175V65.334H20.4501H25.3192V63.9175V62.5011H20.4501H15.5811V63.9175Z" fill="#2E282A"/>
<path id="Vector_42" d="M28.1521 63.9175V65.334H41.0773H54.0025V63.9175V62.5011H41.0773H28.1521V63.9175Z" fill="#2E282A"/>
<path id="Vector_43" d="M16.1123 69.5835V71H35.0575H54.0026V69.5835V68.1671H35.0575H16.1123V69.5835Z" fill="#2E282A"/>
</g>
</svg>
