<svg width="510" height="408" viewBox="0 0 510 408" fill="none" xmlns="http://www.w3.org/2000/svg">
<rect width="509.731" height="407.785" rx="20" fill="#EF3E36"/>
<path d="M341 282L189 248H319.962L341 282Z" fill="#62BBBB"/>
<rect x="129" y="280" width="247.729" height="11.2141" fill="#A6A6CA"/>
<path d="M256 92L323.721 143H368C345.774 132.239 298.091 108.938 285.172 101.826C272.253 94.7138 260.341 92.3119 256 92Z" fill="#62BBBB"/>
<path fill-rule="evenodd" clip-rule="evenodd" d="M173.309 279.535L191.332 248.34L339.481 279.194L173.309 279.535Z" fill="#6DCACA"/>
<path fill-rule="evenodd" clip-rule="evenodd" d="M129.472 287.793H378.221V304.769C378.221 310.596 372.936 315.318 366.449 315.318H141.625C134.934 315.318 129.485 310.449 129.485 304.389V287.793H129.472Z" fill="#C3C3E9"/>
<path fill-rule="evenodd" clip-rule="evenodd" d="M141.705 142.309L231.381 97.085L249.544 92.3623L259.907 92.7703L328.267 143.743L141.705 142.309Z" fill="#6DCACA"/>
<path d="M369.631 315.319H138.225C133.391 315.319 129.472 311.799 129.472 307.39V154.09C129.472 147.878 135.043 142.826 141.898 142.826H368.143C373.714 142.826 378.221 146.902 378.221 151.916V307.575C378.221 311.886 374.37 315.319 369.631 315.319Z" stroke="#2E282A" stroke-width="3" stroke-miterlimit="10" stroke-linejoin="round"/>
<path d="M142.725 142.826L231.566 97.2281C246.077 90.7404 262.105 90.7404 276.615 97.2281L368.026 142.826H142.725Z" stroke="#2E282A" stroke-width="3" stroke-miterlimit="10" stroke-linejoin="round"/>
<path d="M378.221 279.535H129.472" stroke="#2E282A" stroke-width="3" stroke-miterlimit="10" stroke-linejoin="round"/>
<path d="M339.481 278.619L376.088 245.208L340.594 210.679L377.201 177.318L341.747 142.826" stroke="#2E282A" stroke-width="3" stroke-miterlimit="10" stroke-linejoin="round"/>
<path d="M297.683 248.34H318.87L339.481 278.618" stroke="#2E282A" stroke-width="3" stroke-miterlimit="10" stroke-linejoin="round"/>
<path d="M268.119 248.34H280.352" stroke="#2E282A" stroke-width="3" stroke-miterlimit="10" stroke-linejoin="round"/>
<path d="M230.398 248.34H243.651" stroke="#2E282A" stroke-width="3" stroke-miterlimit="10" stroke-linejoin="round"/>
<path d="M173.309 279.535L191.11 248.34H213.068" stroke="#2E282A" stroke-width="3" stroke-miterlimit="10" stroke-linejoin="round"/>
<path d="M173.309 142.826V279.536" stroke="#2E282A" stroke-width="3" stroke-miterlimit="10" stroke-linejoin="round"/>
<path d="M338.461 142.826V279.536" stroke="#2E282A" stroke-width="3" stroke-miterlimit="10" stroke-linejoin="round"/>
<path d="M168.84 142.826L130.491 177.346L172.082 210.71L131.692 245.218L171.27 278.619" stroke="#2E282A" stroke-width="3" stroke-miterlimit="10" stroke-linejoin="round"/>
<path d="M134 144.5L171.27 177.246L131.692 210.643L172.082 245.184L130.491 278.617" stroke="#2E282A" stroke-width="3" stroke-miterlimit="10" stroke-linejoin="round"/>
<path d="M373 144.5L339.481 177.288L376.088 210.659L340.594 245.198L377.201 278.618" stroke="#2E282A" stroke-width="3" stroke-miterlimit="10" stroke-linejoin="round"/>
<path fill-rule="evenodd" clip-rule="evenodd" d="M210.631 165.101C219.032 178.566 204.154 192.421 189.682 184.599C188.165 183.755 186.85 182.533 185.956 181.085C177.514 167.658 192.433 153.766 206.85 161.625C208.422 162.469 209.737 163.691 210.631 165.101Z" fill="#C3C3E9"/>
<path fill-rule="evenodd" clip-rule="evenodd" d="M256.49 159.618C264.935 173.045 250.01 186.938 235.586 179.078C234.027 178.234 232.712 177.013 231.817 175.602C223.412 162.137 238.297 148.283 252.775 156.104C254.266 156.948 255.581 158.17 256.49 159.618Z" fill="#6DCACA"/>
<path fill-rule="evenodd" clip-rule="evenodd" d="M293.122 165.101C301.817 178.566 286.419 192.421 271.455 184.599C269.885 183.755 268.524 182.533 267.599 181.085C258.862 167.658 274.302 153.766 289.238 161.625C290.836 162.469 292.183 163.691 293.122 165.101Z" fill="#C3C3E9"/>
<path fill-rule="evenodd" clip-rule="evenodd" d="M327.85 165.101C336.303 178.566 321.365 192.421 306.929 184.599C305.368 183.755 304.093 182.533 303.197 181.085C294.745 167.658 309.683 153.766 324.119 161.625C325.666 162.469 326.941 163.691 327.85 165.101Z" fill="#6DCACA"/>
<path d="M201.854 142.826V159.341" stroke="#2E282A" stroke-width="3" stroke-miterlimit="10" stroke-linejoin="round"/>
<path d="M208.75 163.497C213.172 170.541 205.127 177.783 197.289 173.809C196.283 173.326 195.498 172.571 194.96 171.705C190.538 164.623 198.542 157.418 206.422 161.392C207.387 161.887 208.213 162.593 208.75 163.497Z" stroke="#2E282A" stroke-width="3" stroke-miterlimit="10" stroke-linejoin="round"/>
<path d="M238.554 142.826V159.341" stroke="#2E282A" stroke-width="3" stroke-miterlimit="10" stroke-linejoin="round"/>
<path d="M245.447 163.497C249.869 170.541 241.865 177.783 233.985 173.809C233.021 173.326 232.195 172.571 231.657 171.705C227.235 164.623 235.28 157.418 243.119 161.392C244.111 161.887 244.91 162.593 245.447 163.497Z" stroke="#2E282A" stroke-width="3" stroke-miterlimit="10" stroke-linejoin="round"/>
<path d="M274.235 142.826V159.341" stroke="#2E282A" stroke-width="3" stroke-miterlimit="10" stroke-linejoin="round"/>
<path d="M281.132 163.497C285.554 170.541 277.509 177.783 269.67 173.809C268.665 173.326 267.88 172.571 267.342 171.705C262.92 164.623 270.924 157.418 278.804 161.392C279.755 161.887 280.595 162.593 281.132 163.497Z" stroke="#2E282A" stroke-width="3" stroke-miterlimit="10" stroke-linejoin="round"/>
<path d="M310.936 142.826V159.341" stroke="#2E282A" stroke-width="3" stroke-miterlimit="10" stroke-linejoin="round"/>
<path d="M317.834 163.497C322.244 170.541 314.251 177.783 306.368 173.809C305.404 173.326 304.577 172.571 304.04 171.705C299.616 164.623 307.664 157.418 315.505 161.392C316.511 161.887 317.296 162.593 317.834 163.497Z" stroke="#2E282A" stroke-width="3" stroke-miterlimit="10" stroke-linejoin="round"/>
<path fill-rule="evenodd" clip-rule="evenodd" d="M266.017 245.984C273.266 257.644 260.42 269.677 247.959 262.888C246.627 262.128 245.494 261.119 244.734 259.873C237.485 248.214 250.332 236.18 262.752 242.969C264.084 243.717 265.217 244.738 266.017 245.984Z" fill="white" stroke="#2E282A" stroke-width="3" stroke-miterlimit="10" stroke-linecap="round" stroke-linejoin="round"/>
<path d="M240.593 229.991H271.177" stroke="#2E282A" stroke-width="3" stroke-miterlimit="10" stroke-linecap="round" stroke-linejoin="round"/>
<path d="M254.865 224.485V241.001" stroke="#2E282A" stroke-width="3" stroke-miterlimit="10" stroke-linecap="round" stroke-linejoin="round"/>
<path fill-rule="evenodd" clip-rule="evenodd" d="M227.405 258.433H216.103C214.441 258.433 213.068 257.259 213.068 255.795V240.004C213.068 238.504 214.441 237.33 216.103 237.33H227.405C229.066 237.33 230.398 238.504 230.398 240.004V255.795C230.398 257.271 229.066 258.433 227.405 258.433Z" fill="white" stroke="#2E282A" stroke-width="3" stroke-miterlimit="10" stroke-linecap="round" stroke-linejoin="round"/>
<path d="M294.648 258.433H283.387C281.684 258.433 280.352 257.259 280.352 255.795V240.004C280.352 238.504 281.684 237.33 283.387 237.33H294.648C296.31 237.33 297.683 238.504 297.683 240.004V255.795C297.683 257.271 296.31 258.433 294.648 258.433Z" fill="white" stroke="#2E282A" stroke-width="3" stroke-miterlimit="10" stroke-linecap="round" stroke-linejoin="round"/>
<path d="M246.71 262.104L240.593 266.691" stroke="#2E282A" stroke-width="3" stroke-miterlimit="10" stroke-linecap="round" stroke-linejoin="round"/>
<path d="M264.041 262.104L270.158 266.691" stroke="#2E282A" stroke-width="3" stroke-miterlimit="10" stroke-linecap="round" stroke-linejoin="round"/>
<path d="M421.585 315.319H384.81C381.729 315.319 379.24 313.106 379.24 310.337V225.833C379.24 223.064 381.729 220.814 384.81 220.814H421.585C424.665 220.814 427.155 223.064 427.155 225.833V310.337C427.155 313.106 424.665 315.319 421.585 315.319Z" fill="#464646" stroke="#2E282A" stroke-width="3" stroke-miterlimit="10" stroke-linecap="round" stroke-linejoin="round"/>
<path d="M413.739 287.287C421.311 298.921 407.947 310.962 394.98 304.178C393.611 303.427 392.447 302.393 391.626 301.162C384.081 289.491 397.418 277.451 410.384 284.271C411.754 284.985 412.958 286.019 413.739 287.287Z" fill="#D9D9D9" stroke="#2E282A" stroke-width="3" stroke-miterlimit="10" stroke-linecap="round" stroke-linejoin="round"/>
<path d="M409.595 242.388C413.987 249.461 405.989 256.692 398.112 252.711C397.123 252.236 396.31 251.494 395.781 250.605C391.389 243.569 399.387 236.338 407.263 240.282C408.239 240.793 409.066 241.536 409.595 242.388Z" fill="#D9D9D9" stroke="#2E282A" stroke-width="3" stroke-miterlimit="10" stroke-linecap="round" stroke-linejoin="round"/>
<path d="M406.87 291.415C409.956 295.997 404.655 300.774 399.599 297.964C399.15 297.744 398.77 297.414 398.525 296.999C395.399 292.442 400.7 287.676 405.756 290.45C406.218 290.707 406.585 291.036 406.87 291.415Z" fill="#464646" stroke="#2E282A" stroke-width="3" stroke-miterlimit="10" stroke-linecap="round" stroke-linejoin="round"/>
<path d="M122.882 315.319H86.1072C83.0266 315.319 80.5374 313.106 80.5374 310.337V225.833C80.5374 223.064 83.0266 220.814 86.1072 220.814H122.882C125.963 220.814 128.452 223.064 128.452 225.833V310.337C128.452 313.106 125.963 315.319 122.882 315.319Z" fill="#464646" stroke="#2E282A" stroke-width="3" stroke-miterlimit="10" stroke-linecap="round" stroke-linejoin="round"/>
<path d="M115.036 287.287C122.608 298.921 109.244 310.962 96.2777 304.178C94.9084 303.427 93.7446 302.393 92.923 301.162C85.3785 289.491 98.7149 277.451 111.682 284.271C113.051 284.985 114.256 286.019 115.036 287.287Z" fill="#D9D9D9" stroke="#2E282A" stroke-width="3" stroke-miterlimit="10" stroke-linecap="round" stroke-linejoin="round"/>
<path d="M110.892 242.388C115.284 249.461 107.286 256.692 99.4098 252.711C98.4202 252.236 97.6069 251.494 97.0782 250.605C92.6861 243.569 100.684 236.338 108.56 240.282C109.536 240.793 110.363 241.536 110.892 242.388Z" fill="#D9D9D9" stroke="#2E282A" stroke-width="3" stroke-miterlimit="10" stroke-linecap="round" stroke-linejoin="round"/>
<path d="M108.168 291.415C111.253 295.997 105.952 300.774 100.896 297.964C100.448 297.744 100.067 297.414 99.8227 296.999C96.6966 292.442 101.997 287.676 107.053 290.45C107.515 290.707 107.882 291.036 108.168 291.415Z" fill="#464646" stroke="#2E282A" stroke-width="3" stroke-miterlimit="10" stroke-linecap="round" stroke-linejoin="round"/>
</svg>
