<svg width="500" height="400" viewBox="0 0 500 400" fill="none" xmlns="http://www.w3.org/2000/svg">
<rect width="500" height="400" rx="20" fill="#C3C3E9"/>
<path d="M146.743 315.627L123.137 288.373C122.614 287.734 122.745 286.872 123.398 286.402C126.256 284.391 128.142 281.257 128.186 277.626C128.273 272.364 124.196 267.663 118.494 266.435C114.591 265.652 110.775 266.514 107.873 268.525C107.176 269.034 106.161 268.877 105.595 268.25L81.9444 240.801C78.8248 237.197 79.5358 232.026 83.5259 229.205L219.566 133.604C220.626 134.793 222.207 135.537 223.992 135.576C226.574 135.615 228.91 134.035 229.563 131.776C229.999 130.235 229.694 128.733 228.823 127.584L289.821 84.7002L298.164 94.3113H298.12C296.887 94.8989 295.973 96.0089 295.755 97.3539C295.451 99.5738 297.206 101.546 299.615 101.82C301.109 101.977 302.56 101.428 303.474 100.436L309.002 106.808C307.508 107.317 306.362 108.506 306.144 110.047C305.839 112.228 307.552 114.199 309.96 114.474C311.672 114.669 313.254 113.964 314.168 112.776L319.783 119.305C318.245 119.775 317.07 121.042 316.838 122.583C316.533 124.764 318.245 126.735 320.654 127.01C322.409 127.206 324.034 126.461 324.905 125.234L330.694 131.92L330.607 131.959C329.374 132.547 328.46 133.656 328.242 135.001C327.937 137.182 329.693 139.193 332.102 139.428C333.639 139.624 335.09 139.037 336.005 138.044L341.576 144.456C340.169 145.004 339.168 146.193 338.95 147.616C338.689 149.784 340.401 151.769 342.809 152.043C344.391 152.2 345.885 151.612 346.843 150.541H346.8L352.415 156.992C350.833 157.462 349.6 158.729 349.382 160.322C349.078 162.49 350.79 164.475 353.198 164.749C354.954 164.945 356.622 164.161 357.493 162.894L365.531 172.153L318.23 205.217" fill="#6DCACA"/>
<path d="M146.743 315.627L123.137 288.373C122.614 287.734 122.745 286.872 123.398 286.402C126.256 284.391 128.142 281.257 128.186 277.626C128.273 272.364 124.196 267.663 118.494 266.435C114.591 265.652 110.775 266.514 107.873 268.525C107.176 269.034 106.161 268.877 105.595 268.25L81.9444 240.801C78.8248 237.197 79.5358 232.026 83.5259 229.205L219.566 133.604C220.626 134.793 222.207 135.537 223.992 135.576C226.574 135.615 228.91 134.035 229.563 131.776C229.999 130.235 229.694 128.733 228.823 127.584L289.821 84.7002L298.164 94.3113H298.12C296.887 94.8989 295.973 96.0089 295.755 97.3539C295.451 99.5738 297.206 101.546 299.615 101.82C301.109 101.977 302.56 101.428 303.474 100.436L309.002 106.808C307.508 107.317 306.362 108.506 306.144 110.047C305.839 112.228 307.552 114.199 309.96 114.474C311.672 114.669 313.254 113.964 314.168 112.776L319.783 119.305C318.245 119.775 317.07 121.042 316.838 122.583C316.533 124.764 318.245 126.735 320.654 127.01C322.409 127.206 324.034 126.461 324.905 125.234L330.694 131.92L330.607 131.959C329.374 132.547 328.46 133.656 328.242 135.001C327.937 137.182 329.693 139.193 332.101 139.428C333.639 139.624 335.09 139.037 336.005 138.044L341.576 144.456C340.169 145.004 339.168 146.193 338.95 147.616C338.689 149.784 340.401 151.769 342.809 152.043C344.391 152.2 345.885 151.612 346.843 150.541H346.8L352.415 156.992C350.833 157.462 349.6 158.729 349.382 160.322C349.078 162.49 350.79 164.475 353.198 164.749C354.954 164.945 356.622 164.161 357.493 162.894L365.531 172.153L318.23 205.217L146.743 315.627Z" stroke="#2E282A" stroke-width="3" stroke-miterlimit="10" stroke-linecap="round" stroke-linejoin="round"/>
<path fill-rule="evenodd" clip-rule="evenodd" d="M145.467 303.09L132.742 287.589C132.742 287.589 138.879 273.708 130.725 265.56C122.556 257.45 109.005 259.905 109.005 259.905L87.7627 235.133L214.459 146.101L265.59 205.229L154.259 205.425L145.438 210.166V249.641C145.438 249.641 162.776 254.107 159.483 263.64C156.233 273.173 150.879 273.76 146.889 274.165L145.467 303.09Z" fill="#EF3E36"/>
<path d="M240.692 140.76C243.362 146.101 236.919 150.606 231.827 146.976C231.391 146.662 231.043 146.271 230.767 145.787C228.083 140.446 234.54 135.902 239.633 139.585C240.083 139.898 240.431 140.29 240.692 140.76Z" fill="#C3C3E9" stroke="#2E282A" stroke-width="3" stroke-miterlimit="10" stroke-linecap="round" stroke-linejoin="round"/>
<path d="M251.632 153.309C254.302 158.65 247.86 163.194 242.767 159.564C242.332 159.251 241.984 158.807 241.751 158.376C239.038 153.035 245.524 148.49 250.617 152.121C251.052 152.434 251.415 152.865 251.632 153.309Z" fill="#C3C3E9" stroke="#2E282A" stroke-width="3" stroke-miterlimit="10" stroke-linecap="round" stroke-linejoin="round"/>
<path d="M262.558 165.885C265.271 171.226 258.785 175.731 253.692 172.088C253.257 171.775 252.909 171.383 252.677 170.9C250.007 165.559 256.449 161.014 261.542 164.697C261.977 165.01 262.34 165.402 262.558 165.885Z" fill="#C3C3E9" stroke="#2E282A" stroke-width="3" stroke-miterlimit="10" stroke-linecap="round" stroke-linejoin="round"/>
<path d="M273.527 178.421C276.196 183.762 269.754 188.306 264.661 184.676C264.226 184.362 263.878 183.918 263.602 183.487C260.932 178.146 267.375 173.602 272.467 177.245C272.903 177.546 273.265 177.99 273.527 178.421Z" fill="#C3C3E9" stroke="#2E282A" stroke-width="3" stroke-miterlimit="10" stroke-linecap="round" stroke-linejoin="round"/>
<path d="M284.453 190.997C287.122 196.338 280.68 200.843 275.587 197.213C275.152 196.9 274.804 196.495 274.586 196.025C271.859 190.684 278.359 186.139 283.452 189.822C283.887 190.122 284.235 190.527 284.453 190.997Z" fill="#C3C3E9" stroke="#2E282A" stroke-width="3" stroke-miterlimit="10" stroke-linecap="round" stroke-linejoin="round"/>
<path d="M284.932 205.439C285.28 202.71 288.095 200.725 291.113 201.09C293.652 201.365 295.538 203.101 295.944 205.282" fill="#C3C3E9"/>
<path d="M284.932 205.439C285.28 202.71 288.095 200.725 291.113 201.09C293.652 201.365 295.538 203.101 295.944 205.282" stroke="#2E282A" stroke-width="3" stroke-miterlimit="10" stroke-linecap="round" stroke-linejoin="round"/>
<path d="M144.988 301.862L132.22 286.949C133.801 284.73 134.846 282.209 135.252 279.389C136.616 269.464 128.752 260.362 117.739 259.135C114.707 258.821 111.732 259.096 109.005 259.892L87.7627 235.133L214.459 146.101L265.59 205.229" stroke="#2E282A" stroke-width="3" stroke-miterlimit="10" stroke-linecap="round" stroke-linejoin="round"/>
<path d="M182.771 205.242L214.198 183.16" stroke="#2E282A" stroke-width="3" stroke-miterlimit="10" stroke-linecap="round" stroke-linejoin="round"/>
<path d="M133.061 240.161L145.031 231.777" stroke="#2E282A" stroke-width="3" stroke-miterlimit="10" stroke-linecap="round" stroke-linejoin="round"/>
<path d="M215.562 205.243L226.575 197.486" stroke="#2E282A" stroke-width="3" stroke-miterlimit="10" stroke-linecap="round" stroke-linejoin="round"/>
<path d="M145.423 254.512L149.732 251.47" stroke="#2E282A" stroke-width="3" stroke-miterlimit="10" stroke-linecap="round" stroke-linejoin="round"/>
<path fill-rule="evenodd" clip-rule="evenodd" d="M337.281 291.977C334.162 291.977 331.622 289.679 331.622 286.871C331.622 284.064 334.162 281.765 337.281 281.765C340.401 281.765 342.94 284.064 342.94 286.871C342.94 289.679 340.401 291.977 337.281 291.977ZM337.281 308.196C334.162 308.196 331.622 305.898 331.622 303.09C331.622 300.282 334.162 297.984 337.281 297.984C340.401 297.984 342.94 300.282 342.94 303.09C342.94 305.898 340.401 308.196 337.281 308.196ZM335.351 266.944C337.89 266.944 339.965 268.798 339.965 271.097C339.965 273.434 337.905 275.288 335.351 275.288C332.754 275.288 330.694 273.434 330.694 271.097C330.708 268.798 332.769 266.944 335.351 266.944ZM340.401 254.473C340.401 256.771 338.34 258.626 335.787 258.626C333.233 258.626 331.173 256.771 331.173 254.473C331.173 252.175 333.233 250.321 335.787 250.321C338.34 250.321 340.401 252.188 340.401 254.473ZM335.961 243.36C333.073 243.36 330.694 241.232 330.694 238.62C330.694 235.969 333.059 233.88 335.961 233.88C338.906 233.88 341.228 235.969 341.228 238.62C341.242 241.232 338.906 243.36 335.961 243.36ZM336.019 216.943C339.051 216.943 341.503 219.163 341.503 221.892C341.503 224.621 339.051 226.802 336.019 226.802C332.986 226.802 330.578 224.621 330.578 221.892C330.578 219.163 332.986 216.943 336.019 216.943ZM316.837 311.121H153.548V280.538C153.548 280.538 167.811 274.009 167.158 262.152C166.462 250.321 153.592 244.862 153.592 244.862V213.104H314.951L316.924 311.278L316.837 311.121ZM419.912 306.563C419.608 306.642 419.303 306.681 418.94 306.681C416.488 306.681 414.515 304.905 414.515 302.685C414.515 300.465 416.488 298.689 418.94 298.689C419.245 298.689 419.55 298.728 419.869 298.768L419.825 289.352C419.521 289.431 419.172 289.47 418.81 289.47C416.749 289.47 415.081 287.968 415.081 286.114C415.081 284.26 416.749 282.758 418.81 282.758C419.158 282.758 419.463 282.797 419.782 282.875L419.738 274.649C419.346 274.766 418.911 274.844 418.418 274.844C415.748 274.844 413.586 272.873 413.586 270.496C413.586 268.08 415.734 266.147 418.418 266.147C418.853 266.147 419.303 266.226 419.695 266.304L419.651 257.124C419.042 257.398 418.331 257.594 417.591 257.594C415.269 257.594 413.34 255.897 413.34 253.755C413.34 251.653 415.269 249.916 417.591 249.916C418.345 249.916 419.042 250.112 419.608 250.386L419.564 240.932C418.998 241.245 418.331 241.402 417.591 241.402C415.269 241.402 413.34 239.704 413.34 237.562C413.34 235.434 415.269 233.723 417.591 233.723C418.287 233.723 418.955 233.88 419.521 234.154L419.477 224.778C418.911 225.052 418.287 225.209 417.591 225.209C415.269 225.209 413.34 223.472 413.34 221.37C413.34 219.228 415.269 217.531 417.591 217.531C418.244 217.531 418.911 217.648 419.434 217.922L419.39 205.23L379.112 205.386L341.199 205.269C341.199 205.308 341.199 205.347 341.199 205.386C341.199 208.155 338.747 210.414 335.671 210.414C332.595 210.414 330.099 208.155 330.099 205.386C330.099 205.347 330.099 205.308 330.099 205.23L318.245 205.19H153.548L145.423 210.14V251.431C145.423 251.431 160.034 250.242 159.468 263.614C158.902 276.947 145.771 274.257 145.771 274.257V312.779L151.734 318.159H317.04L320.987 318.355L320.595 317.65H330.389C330.389 317.65 330.737 312.792 336.048 313.184C341.358 313.537 341.881 317.964 341.881 317.964L419.985 318.721L419.912 306.563Z" fill="#6DCACA"/>
<path d="M419.869 298.376C418.288 297.866 416.445 298.18 415.168 299.329C413.413 300.909 413.456 303.442 415.212 305.022C416.489 306.172 418.331 306.485 419.913 305.937L420 317.846L341.446 318.003C341.359 316.579 340.575 315.195 339.168 314.203C337.108 312.779 334.119 312.818 332.058 314.32C330.607 315.352 329.911 316.893 329.911 318.394L154.463 318.747C149.544 318.747 145.511 315.143 145.511 310.716L145.336 275.628C145.336 274.831 146.033 274.165 146.874 274.165C150.56 274.126 154.245 272.664 156.799 269.817C160.484 265.625 160.441 259.527 156.668 255.413C154.129 252.567 150.444 251.143 146.758 251.143C145.83 251.143 145.09 250.477 145.09 249.641L145.003 214.318C145.003 209.696 149.123 205.935 154.26 205.935L329.316 205.229C329.316 206.77 330.056 208.272 331.507 209.304C333.567 210.766 336.556 210.805 338.617 209.382C340.024 208.39 340.764 207.005 340.895 205.543L419.405 205.269L419.449 217.648C418.041 217.413 416.503 217.766 415.415 218.758C413.703 220.338 413.703 222.911 415.459 224.452C416.561 225.444 418.099 225.797 419.492 225.562L419.536 233.749C417.998 233.318 416.286 233.632 415.052 234.742C413.297 236.322 413.297 238.894 415.052 240.435C416.286 241.545 418.041 241.859 419.579 241.428L419.623 249.85C418.085 249.341 416.242 249.694 415.009 250.804C413.253 252.384 413.253 254.956 415.009 256.536C416.286 257.646 418.128 257.96 419.666 257.45L419.71 266.069H419.623C418.215 265.834 416.721 266.187 415.633 267.179C413.877 268.759 413.921 271.332 415.676 272.912C416.779 273.904 418.346 274.257 419.753 273.982L419.797 282.248V282.209C418.346 281.896 416.721 282.248 415.546 283.319C413.834 284.899 413.833 287.433 415.589 289.013C416.779 290.044 418.404 290.397 419.84 290.044L419.869 298.376Z" stroke="#2E282A" stroke-width="3" stroke-miterlimit="10" stroke-linecap="round" stroke-linejoin="round"/>
<path d="M341.373 222.794C339.835 228.566 331.492 228.605 329.968 222.833C329.838 222.363 329.838 221.801 329.968 221.331C331.463 215.52 339.791 215.481 341.329 221.253C341.503 221.762 341.503 222.324 341.373 222.794Z" stroke="#2E282A" stroke-width="3" stroke-miterlimit="10" stroke-linecap="round" stroke-linejoin="round"/>
<path d="M341.504 239.011C339.966 244.783 331.681 244.822 330.099 239.051C329.969 238.541 329.969 238.019 330.099 237.51C331.594 231.738 339.922 231.699 341.504 237.47C341.634 237.98 341.634 238.502 341.504 239.011Z" stroke="#2E282A" stroke-width="3" stroke-miterlimit="10" stroke-linecap="round" stroke-linejoin="round"/>
<path d="M341.634 255.23C340.14 261.002 331.811 261.041 330.23 255.269C330.099 254.76 330.099 254.238 330.23 253.728C331.768 247.957 340.067 247.917 341.634 253.689C341.765 254.159 341.765 254.721 341.634 255.23Z" stroke="#2E282A" stroke-width="3" stroke-miterlimit="10" stroke-linecap="round" stroke-linejoin="round"/>
<path d="M341.765 271.41C340.27 277.221 331.942 277.221 330.404 271.449C330.23 270.966 330.23 270.417 330.36 269.947C331.898 264.136 340.183 264.136 341.765 269.869C341.895 270.378 341.895 270.927 341.765 271.41Z" stroke="#2E282A" stroke-width="3" stroke-miterlimit="10" stroke-linecap="round" stroke-linejoin="round"/>
<path d="M341.939 287.63C340.401 293.401 332.116 293.441 330.534 287.669C330.404 287.186 330.404 286.637 330.534 286.128C332.029 280.356 340.372 280.317 341.939 286.089C342.069 286.598 342.069 287.107 341.939 287.63Z" stroke="#2E282A" stroke-width="3" stroke-miterlimit="10" stroke-linecap="round" stroke-linejoin="round"/>
<path d="M342.069 303.835C340.531 309.606 332.246 309.646 330.665 303.874C330.534 303.365 330.534 302.842 330.665 302.333C332.159 296.561 340.488 296.522 342.069 302.294C342.2 302.816 342.2 303.325 342.069 303.835Z" stroke="#2E282A" stroke-width="3" stroke-miterlimit="10" stroke-linecap="round" stroke-linejoin="round"/>
<path d="M153.548 279.558C156.363 278.683 158.989 277.221 161.224 275.21C169.16 267.975 169.073 256.301 161.093 249.145C158.902 247.16 156.305 245.737 153.592 244.875V213.117L316.576 212.438L317.055 311.238L153.548 311.904V279.558Z" fill="#EF3E36" stroke="#2E282A" stroke-width="3" stroke-miterlimit="10" stroke-linecap="round" stroke-linejoin="round"/>
<path d="M186.456 242.459L290.895 242.055" stroke="#2E282A" stroke-width="3" stroke-miterlimit="10" stroke-linecap="round" stroke-linejoin="round"/>
<path d="M186.543 260.886L290.982 260.494" stroke="#2E282A" stroke-width="3" stroke-miterlimit="10" stroke-linecap="round" stroke-linejoin="round"/>
<path d="M186.63 279.324L291.084 278.919" stroke="#2E282A" stroke-width="3" stroke-miterlimit="10" stroke-linecap="round" stroke-linejoin="round"/>
</svg>
